<svg xmlns="http://www.w3.org/2000/svg" width="221.523" height="220.074" viewBox="0 0 221.523 220.074">
  <g id="mavericks_round_only_copy" data-name="mavericks round only copy" transform="translate(-0.011 -1.454)">
    <path id="Path" d="M200.532,51.186c-.095-.3-.416-1.231-.437-1.294l-.157-.471-.3-.394a107.841,107.841,0,0,0-35.829-29.765l-.269-.124a19.171,19.171,0,0,0-5.015-1.34,13.9,13.9,0,0,0-4.672-2.828,110.876,110.876,0,0,0-42.065-8.153c-2.182,0-4.39.074-6.59.221L110.313.212,104.646.025C94.052-.326,84.03,3.062,74.9,8.895a66.587,66.587,0,0,0-8.078,6.065c-1.128.991-1.994,1.819-2.581,2.418a135.234,135.234,0,0,0-15.037,8.317,27.722,27.722,0,0,0-16.2,14.6,40.529,40.529,0,0,0-3.416,3.571q-.462.531-.944,1.1c-1.026,1.217-2.074,2.515-3.092,3.813-.356.454-.683.875-.973,1.254l-.069.09a41.208,41.208,0,0,0-3.728,2.905l-.228.222A45.413,45.413,0,0,0,9.61,74.1a3.43,3.43,0,0,0-.241.75,3.231,3.231,0,0,0-.072.591c-.051.26-.087.525-.131.9-.054.455-.071.585-.111.781l-.043.285A13.61,13.61,0,0,1,8.7,79.131a18.352,18.352,0,0,0-.425,2.414l-.031.307A47.293,47.293,0,0,0,6.414,88.4c-.1.323-.761,2.225-1.578,4.552l-.025.071c-.371,1.057-.769,2.185-1.167,3.31l-.385,1.087-.146.411-.058.18C-.613,110.922-.816,122.556,1.58,132.8a51.866,51.866,0,0,0,3.511,10.227,38.047,38.047,0,0,0,2.565,4.667C22.595,190.6,64.3,220.07,111.637,220.07A110.07,110.07,0,0,0,201.3,175.15l.149-.2.112-.225a9.292,9.292,0,0,0,.7-1.934c.064-.255.112-.473.163-.738,1.41-.778,2.242-1.5,2.553-2.575a103.355,103.355,0,0,0,16.534-56.329,100.9,100.9,0,0,0-18.258-59.293l-.243-.346-.33-.264q-.32-.256-.742-.562l-.174-.125c-.3-.215-.616-.435-.931-.651l-.113-.077C200.665,51.62,200.6,51.408,200.532,51.186Z" transform="translate(0.011 1.454)" fill="#fff"/>
    <path id="Path-2" data-name="Path" d="M197.871,52.6c-.738-.591-2.068-1.477-2.068-1.477a1.78,1.78,0,0,1-.738-.738,16.137,16.137,0,0,0-.738-2.511,104.918,104.918,0,0,0-34.853-28.946,16.081,16.081,0,0,0-4.578-1.181,2.1,2.1,0,0,1-.886-.3,11.075,11.075,0,0,0-4.135-2.658,108.115,108.115,0,0,0-41.056-7.975,96.079,96.079,0,0,0-13,.886l5.76-7.679c-22.3-.738-38.545,16.836-38.545,16.836a132.7,132.7,0,0,0-15.507,8.566A24.77,24.77,0,0,0,32.467,39.158c-2.954,2.363-8.861,10.19-8.861,10.19a37.81,37.81,0,0,0-3.84,2.954A42.469,42.469,0,0,0,9.429,72.239c-.148.148-.148.3-.148.591-.148.591-.148,1.181-.3,1.92-.148,1.477-.591,2.658-.738,4.135l.148-.148a.888.888,0,0,1-.148.591,51.268,51.268,0,0,0-1.92,6.793c-.148.591-3.4,9.747-3.4,9.747h0c-7.975,28.06,2.658,44.9,4.43,47.554,14.177,41.2,54.347,70.74,101.31,70.74a107.128,107.128,0,0,0,87.28-43.714,8.965,8.965,0,0,0,.738-2.658,1.214,1.214,0,0,1,.591-.886c1.477-.738,1.92-1.181,1.92-1.477a100.38,100.38,0,0,0,16.393-55.233A97.985,97.985,0,0,0,197.871,52.6Z" transform="translate(2.976 4.408)"/>
    <path id="Combined_Shape" data-name="Combined Shape" d="M78.051,189.012a79.12,79.12,0,0,1-30.3-5.977,88.2,88.2,0,0,1-22.253-13.446A99.5,99.5,0,0,1,5.339,147.2l-.17-.261A54.848,54.848,0,0,1,0,137.934c0-.112,0-.34.047-.34.024,0,.062.072.1.192a21.305,21.305,0,0,0,5.63,3.619c3.658,1.752,10.084,4.032,19.919,4.947h.148a174.46,174.46,0,0,1-16-20.085,88.979,88.979,0,0,1-5.7-9.452c-.073-.111-1.813-2.8-3.84-10.19.026-.05.075-.131.109-.131s.039.044.039.131a26.291,26.291,0,0,0,3.821,5.04c1.777,1.872,4.554,4.285,7.7,5.15C7.479,109.7,4.489,98.891,3.412,94.576l-.015-.06a24.076,24.076,0,0,0,11.132,8.344,28.663,28.663,0,0,0,7.464,1.833C13.095,95.789,8.354,85.76,7.9,74.885c-.355-8.544,1.905-17.491,6.719-26.6A89.447,89.447,0,0,1,28.946,28.206a2.173,2.173,0,0,1,.552-.579l.005,0c.075-.061.139-.114.181-.156l.591-.59h.148a41.524,41.524,0,0,1,1.182-9.6,41.129,41.129,0,0,1,8.127-8.323,49.153,49.153,0,0,1,8.376-5.208A45.87,45.87,0,0,1,57.3.293,3.876,3.876,0,0,1,58.3,0c.057,0,.089.013.1.039.035.107-.353.4-.357.4a36.461,36.461,0,0,0-8.4,14.6,18.243,18.243,0,0,0-.757,6.073l9.747,35-.008,0A18.627,18.627,0,0,1,53.96,53.2a30.978,30.978,0,0,1-4.488-4.559A41.1,41.1,0,0,1,44.748,41.2c-1.45,12.662,4.169,24.075,9.138,31.419A72.522,72.522,0,0,0,65.128,85.654c.19.19.279.306.263.345,0,.01-.013.014-.032.014a4.966,4.966,0,0,1-.968-.507c-2.588-1.293-7.148-4.188-14.179-10.633.14.911,2.933,14.9,5.98,29.942,2.16,10.659,5.809,28.578,5.981,28.835a2.135,2.135,0,0,0,.288,1.018l.008.016,3.692-9.6,3.4,28.65a35.479,35.479,0,0,1-12.127,7.474,31.361,31.361,0,0,1-10.537,1.82,28.213,28.213,0,0,1-8.758-1.307l-.034-.012a3.167,3.167,0,0,0,.275.417l.008.011.012.014,0,.005a3.1,3.1,0,0,1,.293.439c.029.056,3,5.676,11.565,11.239,7.9,5.127,22.29,11.239,46.028,11.239,2.342,0,4.778-.06,7.24-.178.01,0,1,0,1.045.114,0,.011,0,.022-.011.033a.519.519,0,0,0-.3.148,12.345,12.345,0,0,1-2.481.586l-.026,0A92.251,92.251,0,0,1,78.051,189.012ZM55.937,144.23c1.578,0,3.527,3.546,5.794,10.54-.061-.671-.1-1.24-.128-1.742-.045-.717-.08-1.283-.167-1.8-.091-.912-.293-1.927-.507-3-.131-.659-.266-1.34-.38-2.019a29.057,29.057,0,0,0-2.067-6.055c-.779-1.714-1.828-2.659-2.954-2.659-1.655,0-3.3,1.877-5.169,5.908a2.8,2.8,0,0,1-.3,1.182l3.226,6.451c0,.031.011.048.02.048l-.02-.048a14.814,14.814,0,0,1,.454-3.377C54.116,146.092,54.8,144.23,55.937,144.23ZM16.688,109.283C23.06,126.007,37.243,141,41.9,145.932l.061.065.148.157,0,0,.138.147c.369.392.661.7.868.933.122.245.209.369.258.369s.037-.066.037-.074a.082.082,0,0,1-.055.031c-.047,0-.07-.089-.081-.163a1.176,1.176,0,0,1-.012-.163c-2.318-4.344-16.548-35.577-16.689-35.887a7.108,7.108,0,0,1-2.46.413A15.413,15.413,0,0,1,16.688,109.283Zm12.395-64.14c-.006,0-.013.019-.026.057l0,.006-.005.015a1.826,1.826,0,0,1-.1.263c-12.027,27.334,11.7,39.69,16.574,41.89l.016.007.1.045-1.625-6.941-.886-3.692a6.308,6.308,0,0,0-2.068-.886.656.656,0,0,1-.307-.133c-.08-.049-.171-.105-.284-.162a2.1,2.1,0,0,1-.884-.294,19.258,19.258,0,0,1-7.209-6.527,23.6,23.6,0,0,1-3.26-8.132,38.613,38.613,0,0,1-.167-13.55v-.59a2.518,2.518,0,0,0,.148-1.034A1.473,1.473,0,0,0,29.083,45.143Zm9.61,3.738a11.709,11.709,0,0,0-4.136,8.566,14.576,14.576,0,0,0,1.034,5.021,3.539,3.539,0,0,1,.887,1.624c.146,0,.3.3.3.59l.59.591a11.4,11.4,0,0,0,7.384,3.249,5.058,5.058,0,0,0-.4-1.154l-.01-.021c-.069-.156-.135-.3-.184-.449a48.09,48.09,0,0,1-5.464-17.869ZM51.246,5.019A16.568,16.568,0,0,0,45.117,8.73c-4.011,3.648-6.669,8.809-7.9,15.34,0,0,0,.1.028.124a.023.023,0,0,0,.016.007c.026,0,.057-.039.1-.131.739-1.231,3.358-5.248,6.036-5.248a2.541,2.541,0,0,1,1.052.227v-.3l.025-.118.018-.081,0-.006a27.243,27.243,0,0,1,1.527-4.919A35.089,35.089,0,0,1,51.1,5.167Z" transform="translate(38.25 8.567)" fill="#fff"/>
    <path id="Combined_Shape-2" data-name="Combined Shape" d="M60.254,171.459s-1.92-.886-5.169-2.363c-9.6-4.725-29.831-17.278-41.055-40.465C2.362,110.466,0,96.437,0,83a7.423,7.423,0,0,1,.3-1.772c.591,3.4,3.249,17.132,8.861,25.7l.3.739c.148.443.148.59.3.59.3.148.3.3.59.3h.148V108.4a8.328,8.328,0,0,0-.59-1.772s-.886-3.988-2.067-9.3a114.5,114.5,0,0,1-1.92-17.279A64.938,64.938,0,0,1,4.135,64.832c0-9.157,1.92-20.676,9.6-28.946C12.7,38.693,9.895,45.929,9.895,52.723a2.512,2.512,0,0,0-.148,1.033V53.9c0,.148.148.3.443.3s.3-.148.3-.148c0-.148.148-.443.3-1.181A56.407,56.407,0,0,1,14.03,44.6,74.707,74.707,0,0,1,25.254,27.174v-.148a54.037,54.037,0,0,1,2.658-6.794,29.857,29.857,0,0,1,6.5-9.6,18.91,18.91,0,0,0-2.658,7.974c0,.149,0,.149.148.149a92.514,92.514,0,0,1,6.35-7.089C41.5,8.418,45.338,4.874,48.735,3.4A87,87,0,0,0,23.482,64.685a93.053,93.053,0,0,0,.738,11.076c-.59-1.329-1.182-2.806-1.625-4.135a57.339,57.339,0,0,1-2.067-15.8,98.051,98.051,0,0,1,1.477-14.768.145.145,0,0,0-.148-.148l-.149.148S14.03,49.917,14.03,65.867c0,11.814,4.282,27.912,19.2,46.815-.444-.148-.739-.444-1.182-.591-3.544-1.329-11.815-5.611-18.313-18.607h-.3a.145.145,0,0,0-.148.148s.739,46.815,52.575,73.84c0,0,15.654,9.009,40.17,9.009,15.654,0,34.557-3.692,55.381-15.8l1.033-.738a.941.941,0,0,0,.372-.077l-.962.962s-1.624,1.329-4.431,3.249A100.962,100.962,0,0,1,102.2,181.058,97.979,97.979,0,0,1,60.254,171.459Zm102.787-11.814c0,.081-.089.163-.22.219ZM113.715,136.9l-7.975-28.8,6.35-32.49L108.4,109.728l8.27,28.354-15.95,12.258Zm-26.287-3.249a13.126,13.126,0,0,0-.148-3.4,29.062,29.062,0,0,0-1.034-5.169,39.355,39.355,0,0,0-1.92-5.907c-.59-1.624-1.772-2.806-2.954-2.806-1.625.148-3.4,1.772-5.169,6.055a2.133,2.133,0,0,0-.3,1.033c-.59-12.848,5.612-11.224,5.612-11.224,8.861,2.363,6.2,19.938,5.908,21.562ZM73.841,107.365,71.773,70.3l12.553,41.351S80.339,101.9,73.841,107.365Zm44.3-67.195A32.126,32.126,0,0,1,119.918,50.8a18.8,18.8,0,0,1-5.169,13.735,12.942,12.942,0,0,1-3.544,2.806c-.3.148-.444.3-.739.3C116.521,62.47,118,44.9,118.146,40.17Zm-55.53,3.086.149.163A1.7,1.7,0,0,1,62.616,43.256ZM64.537,18.9a44.436,44.436,0,0,0,0,8.861l-.148.148a10.566,10.566,0,0,0-4.136,8.27,12.586,12.586,0,0,0,1.182,5.17c.3.443.59.886,1.034,1.476a.656.656,0,0,0,.146.428C54.725,34.565,61.308,23.453,64.537,18.9Zm5.908,1.181s.148,0,.3.3c6.054,6.2,6.793,4.577,6.793,3.4a1.876,1.876,0,0,0-.148-.887L74.727.738V0l9.6,35S76.5,32.342,70.445,20.084ZM113.863,3.4c.3-.148,1.182-.443,2.659-1.034a22.585,22.585,0,0,1,7.68-1.181,24.923,24.923,0,0,1,7.384,1.181c-3.1,0-10.633.444-15.063,7.237A39.142,39.142,0,0,0,113.863,3.4Z" transform="translate(12.405 29.684)" fill="#bbc4c9"/>
    <path id="Combined_Shape-3" data-name="Combined Shape" d="M5.316,163.337a.145.145,0,0,1-.148-.148c0-.148,0-.148.148-.148l15.8-12.848-7.975-29.832,2.067-20.084h.3c3.692,1.034,5.316,5.908,6.2,10.485a34.354,34.354,0,0,1,.886,7.827,51.525,51.525,0,0,0,5.464-22c0-8.27-2.658-12.848-4.135-14.768-.3-.3-.443-.591-.739-.886-.148,0-.148-.148,0-.148,0-.148.148-.148.3,0,19.05,17.722,22.743,42.827,22.891,60.4A110.458,110.458,0,0,1,44.6,160.826a3.658,3.658,0,0,1-2.511,2.363,101.853,101.853,0,0,1-20.084,2.067q-.834.022-1.667.022A57.489,57.489,0,0,1,5.316,163.337Zm44.305-2.511c-.3-.148-.3-.59-.3-1.033v-.886a33.375,33.375,0,0,0,1.182-6.5,88.159,88.159,0,0,0,1.182-16.54c0-17.869-4.283-42.976-24.368-62.322-.148-.148-.148-.148-.3-.148l-.591-.59a.515.515,0,0,1,.148-.3h.3a1.872,1.872,0,0,1,.886.148,23.83,23.83,0,0,1,9.009,5.612c-.148-.886-.591-2.805-1.034-5.316a34.152,34.152,0,0,0-6.2-11.667l-.59-.59c-.148-.3-.3-.3-.3-.739v-.3h.3c.148,0,.3.148.886.59,1.182.591,51.689,24.811,53.461,73.841v.886A7.239,7.239,0,0,1,81.52,140c-.59.59-12.4,15.506-30.127,20.97a2.726,2.726,0,0,1-1.034.3S49.769,161.269,49.622,160.826Zm37.806-35.739C86.394,84.622,48,57.153,28.8,45.781A91.049,91.049,0,0,0,18.165,40.17l-.886-.591H18.46a16.583,16.583,0,0,1,12.11,5.465,15.2,15.2,0,0,0-.886-5.169l-.3-.591.591.148c5.464,2.068,12.4,2.806,19.346,2.806A125.476,125.476,0,0,0,67.491,40.76c4.726-.59,7.975-1.182,7.975-1.182H76.2c2.806,0,3.692,1.625,3.692,1.773,6.5,7.236,14.621,23.924,15.95,44.009.148,2.51.148,5.021.148,7.236,0,15.064-3.249,26.879-5.464,31.6-.887,1.772-1.625,2.658-2.363,2.658a.584.584,0,0,1-.141.019C87.551,126.877,87.428,126.168,87.428,125.087ZM21.118,26.878l-.148-.148C23.63,19.789,35.3,13.883,37.806,12.7A31.857,31.857,0,0,0,22.6,8.861a30.661,30.661,0,0,0-8.122,1.034,23.316,23.316,0,0,0-2.954,1.034l-.148.148v-.148A84.309,84.309,0,0,0,.738,1.034C.3.887,0,.59,0,.3A1.127,1.127,0,0,1,.738,0H1.772c47.406,0,72.66,33.672,72.66,33.672a1.127,1.127,0,0,1,.3.738c0,1.182-1.329,1.625-2.363,1.92a8.679,8.679,0,0,1-2.068.3,93.968,93.968,0,0,1-12.848.886C33.08,37.511,21.118,26.878,21.118,26.878Z" transform="translate(112.534 19.494)" fill="#0053bc"/>
  </g>
</svg>